<mxfile host="app.diagrams.net" modified="2023-04-10T20:22:52.272Z" agent="Mozilla/5.0 (Windows NT 10.0; Win64; x64) AppleWebKit/537.36 (KHTML, like Gecko) Chrome/111.0.0.0 Safari/537.36" etag="s0es__wC-MlhlGyhko0K" compressed="false" version="21.1.5" type="google">
  <diagram name="modeling-flowchart-English" id="lYM-ZkALmbCpGzLqlZxu">
    <mxGraphModel grid="1" page="0" gridSize="10" guides="1" tooltips="1" connect="1" arrows="1" fold="1" pageScale="1" pageWidth="827" pageHeight="1169" math="1" shadow="0">
      <root>
        <mxCell id="IPpactHnkEMHCw_4FyVV-0" />
        <mxCell id="IPpactHnkEMHCw_4FyVV-1" parent="IPpactHnkEMHCw_4FyVV-0" />
        <mxCell id="NsBZBf5qjh5uvH7BnObX-89" style="edgeStyle=orthogonalEdgeStyle;curved=1;rounded=0;orthogonalLoop=1;jettySize=auto;html=1;exitX=0.25;exitY=1;exitDx=0;exitDy=0;entryX=0.006;entryY=0.176;entryDx=0;entryDy=0;fontFamily=Times New Roman;strokeWidth=2;entryPerimeter=0;shadow=1;" edge="1" parent="IPpactHnkEMHCw_4FyVV-1" source="NsBZBf5qjh5uvH7BnObX-15" target="NsBZBf5qjh5uvH7BnObX-78">
          <mxGeometry relative="1" as="geometry" />
        </mxCell>
        <mxCell id="IPpactHnkEMHCw_4FyVV-2" value="Step 1) Input data to feed the regression methods (training matrix v1-7-2):" style="swimlane;startSize=0;labelBackgroundColor=default;labelBorderColor=none;fontFamily=Times New Roman;html=1;verticalAlign=bottom;fillColor=#FFFFFF;align=left;spacingBottom=2;" vertex="1" parent="IPpactHnkEMHCw_4FyVV-1">
          <mxGeometry x="147" y="20" width="597" height="120" as="geometry" />
        </mxCell>
        <mxCell id="IPpactHnkEMHCw_4FyVV-3" value="SOC stocks&lt;br&gt;`(g&amp;nbsp; m^{-2})`&lt;br&gt;samples" style="strokeWidth=1;shape=mxgraph.flowchart.database;verticalAlign=middle;labelPosition=center;verticalLabelPosition=middle;align=center;horizontal=1;fontFamily=Times New Roman;labelBackgroundColor=none;labelBorderColor=none;html=1;fillColor=#f5f5f5;strokeColor=#666666;shadow=0;spacingTop=19;gradientColor=#b3b3b3;" vertex="1" parent="IPpactHnkEMHCw_4FyVV-2">
          <mxGeometry x="46" y="16.75" width="110" height="77.5" as="geometry" />
        </mxCell>
        <mxCell id="IPpactHnkEMHCw_4FyVV-4" value="" style="verticalLabelPosition=bottom;verticalAlign=top;html=1;shadow=0;dashed=0;strokeWidth=1;shape=mxgraph.ios.iAddIcon;fillColor=#7AdF78;fillColor2=#1A9917;strokeColor=#ffffff;sketch=0;" vertex="1" parent="IPpactHnkEMHCw_4FyVV-2">
          <mxGeometry x="172" y="34.5" width="40" height="42" as="geometry" />
        </mxCell>
        <mxCell id="IPpactHnkEMHCw_4FyVV-6" value="=" style="text;html=1;fillColor=none;align=center;verticalAlign=middle;whiteSpace=wrap;rounded=0;labelBackgroundColor=none;fontFamily=Times New Roman;fontStyle=1;fontSize=60;spacing=0;fontColor=#000000;" vertex="1" parent="IPpactHnkEMHCw_4FyVV-2">
          <mxGeometry x="356.5" y="36.25" width="60" height="38.5" as="geometry" />
        </mxCell>
        <mxCell id="IPpactHnkEMHCw_4FyVV-7" value="Database:&lt;br&gt;n = 9,633 samples" style="strokeWidth=1;shape=mxgraph.flowchart.database;verticalAlign=middle;labelPosition=center;verticalLabelPosition=middle;align=center;horizontal=1;fontFamily=Times New Roman;labelBackgroundColor=none;labelBorderColor=none;html=1;fillColor=#f5f5f5;strokeColor=#666666;shadow=0;spacingTop=19;gradientColor=#b3b3b3;" vertex="1" parent="IPpactHnkEMHCw_4FyVV-2">
          <mxGeometry x="426.5" y="16.75" width="110" height="77.5" as="geometry" />
        </mxCell>
        <mxCell id="NsBZBf5qjh5uvH7BnObX-7" value="" style="group" vertex="1" connectable="0" parent="IPpactHnkEMHCw_4FyVV-2">
          <mxGeometry x="220.75" y="10" width="141" height="99" as="geometry" />
        </mxCell>
        <mxCell id="NsBZBf5qjh5uvH7BnObX-6" value="Covariable&lt;br&gt;samples" style="shape=parallelogram;html=1;strokeWidth=2;perimeter=parallelogramPerimeter;whiteSpace=wrap;rounded=1;arcSize=12;size=0.23;fontFamily=Times New Roman;shadow=1;fillColor=#ffe6cc;strokeColor=#d79b00;" vertex="1" parent="NsBZBf5qjh5uvH7BnObX-7">
          <mxGeometry x="16" y="29" width="125" height="70" as="geometry" />
        </mxCell>
        <mxCell id="NsBZBf5qjh5uvH7BnObX-3" value="Covariable&lt;br&gt;samples" style="shape=parallelogram;html=1;strokeWidth=2;perimeter=parallelogramPerimeter;whiteSpace=wrap;rounded=1;arcSize=12;size=0.23;fontFamily=Times New Roman;shadow=1;fillColor=#f8cecc;strokeColor=#b85450;" vertex="1" parent="NsBZBf5qjh5uvH7BnObX-7">
          <mxGeometry x="10" y="19" width="125" height="70" as="geometry" />
        </mxCell>
        <mxCell id="NsBZBf5qjh5uvH7BnObX-4" value="Covariable&lt;br&gt;samples" style="shape=parallelogram;html=1;strokeWidth=2;perimeter=parallelogramPerimeter;whiteSpace=wrap;rounded=1;arcSize=12;size=0.23;fontFamily=Times New Roman;shadow=1;fillColor=#d5e8d4;strokeColor=#82b366;" vertex="1" parent="NsBZBf5qjh5uvH7BnObX-7">
          <mxGeometry x="5" y="9" width="125" height="70" as="geometry" />
        </mxCell>
        <mxCell id="NsBZBf5qjh5uvH7BnObX-5" value="Covariable&lt;br&gt;samples" style="shape=parallelogram;html=1;strokeWidth=2;perimeter=parallelogramPerimeter;whiteSpace=wrap;rounded=1;arcSize=12;size=0.23;fontFamily=Times New Roman;shadow=1;" vertex="1" parent="NsBZBf5qjh5uvH7BnObX-7">
          <mxGeometry width="125" height="70" as="geometry" />
        </mxCell>
        <mxCell id="IPpactHnkEMHCw_4FyVV-29" value="&lt;div style=&quot;&quot;&gt;&lt;span style=&quot;background-color: rgb(248 , 249 , 250)&quot;&gt;Step 4) Getting statistical results for:&lt;/span&gt;&lt;/div&gt;" style="swimlane;startSize=0;labelBackgroundColor=default;labelBorderColor=none;fontFamily=Times New Roman;html=1;verticalAlign=bottom;fillColor=#FFFFFF;labelPosition=center;verticalLabelPosition=top;align=left;fontStyle=1;textDirection=ltr;spacingTop=0;spacingBottom=9;" vertex="1" parent="IPpactHnkEMHCw_4FyVV-1">
          <mxGeometry x="147" y="795" width="597" height="167" as="geometry" />
        </mxCell>
        <mxCell id="NsBZBf5qjh5uvH7BnObX-19" value="100 models tuned&lt;br&gt;via standard k-Fold" style="strokeWidth=2;html=1;shape=mxgraph.flowchart.document2;whiteSpace=wrap;size=0.25;shadow=1;fontFamily=Times New Roman;fillColor=#FFCD28;gradientColor=#FFA500;spacingTop=-20;" vertex="1" parent="IPpactHnkEMHCw_4FyVV-29">
          <mxGeometry x="13" y="20" width="141" height="124" as="geometry" />
        </mxCell>
        <mxCell id="NsBZBf5qjh5uvH7BnObX-24" value="100 models tuned using spatial k-Fold" style="strokeWidth=2;html=1;shape=mxgraph.flowchart.document2;whiteSpace=wrap;size=0.25;shadow=1;fontFamily=Times New Roman;fillColor=#FFCD28;gradientColor=#FFA500;spacingTop=-20;" vertex="1" parent="IPpactHnkEMHCw_4FyVV-29">
          <mxGeometry x="170" y="20" width="141" height="125" as="geometry" />
        </mxCell>
        <mxCell id="NsBZBf5qjh5uvH7BnObX-115" value="&lt;span style=&quot;-webkit-font-smoothing: antialiased; orphans: 2; text-align: right; text-indent: 0px; widows: 2; background-color: rgb(248, 249, 250); text-decoration-thickness: initial; text-decoration-style: initial; text-decoration-color: initial;&quot;&gt;&lt;div style=&quot;text-align: left;&quot;&gt;&lt;b&gt;100 metrics generated for 4 models architetures.&lt;/b&gt;&lt;/div&gt;&lt;div style=&quot;text-align: left;&quot;&gt;&lt;b&gt;Model goodness-of-fit metrics:&lt;/b&gt;&lt;/div&gt;&lt;div style=&quot;text-align: left;&quot;&gt;ME (Mean Error)&lt;/div&gt;&lt;div style=&quot;text-align: left;&quot;&gt;MAE (Mean Absolute Error)&lt;/div&gt;&lt;div style=&quot;text-align: left;&quot;&gt;MSE (Mean Squared Error)&lt;/div&gt;&lt;div style=&quot;text-align: left;&quot;&gt;RMSE (Root MSE)&lt;/div&gt;&lt;div style=&quot;text-align: left;&quot;&gt;NSE (Nash-Sutcliffe Efficiency)&lt;/div&gt;&lt;div style=&quot;text-align: left;&quot;&gt;CCC (Lin&#39;s concordance correlation coefficient)&lt;/div&gt;&lt;/span&gt;" style="strokeWidth=2;html=1;shape=mxgraph.flowchart.annotation_1;align=left;pointerEvents=1;fontFamily=Times New Roman;fontColor=#000000;flipH=0;labelPosition=right;verticalLabelPosition=middle;verticalAlign=middle;spacing=0;spacingLeft=-10;spacingBottom=10;spacingTop=5;" vertex="1" parent="IPpactHnkEMHCw_4FyVV-29">
          <mxGeometry x="333" y="20" width="20" height="138" as="geometry" />
        </mxCell>
        <mxCell id="NsBZBf5qjh5uvH7BnObX-93" style="edgeStyle=orthogonalEdgeStyle;curved=1;rounded=0;orthogonalLoop=1;jettySize=auto;html=1;exitX=0.25;exitY=1;exitDx=0;exitDy=0;entryX=0;entryY=0.5;entryDx=0;entryDy=0;fontFamily=Times New Roman;strokeWidth=2;shadow=1;" edge="1" parent="IPpactHnkEMHCw_4FyVV-1" source="NsBZBf5qjh5uvH7BnObX-15" target="NsBZBf5qjh5uvH7BnObX-68">
          <mxGeometry relative="1" as="geometry" />
        </mxCell>
        <mxCell id="IPpactHnkEMHCw_4FyVV-26" value="&lt;span style=&quot;font-weight: 700;&quot;&gt;Step&amp;nbsp;3a) Model&#39;s tuning via the&lt;br&gt;standard k-Fold cross-validation (standard k-Fold):&lt;/span&gt;&lt;span style=&quot;&quot;&gt;&lt;br&gt;&lt;/span&gt;" style="swimlane;startSize=0;labelBackgroundColor=none;labelBorderColor=none;fontFamily=Times New Roman;html=1;verticalAlign=bottom;fillColor=#FFFFFF;labelPosition=center;verticalLabelPosition=top;align=left;fontStyle=0;spacingTop=0;spacingLeft=0;spacingRight=5;" vertex="1" parent="IPpactHnkEMHCw_4FyVV-1">
          <mxGeometry x="147" y="490" width="270" height="255" as="geometry" />
        </mxCell>
        <mxCell id="NsBZBf5qjh5uvH7BnObX-84" value="" style="group" vertex="1" connectable="0" parent="IPpactHnkEMHCw_4FyVV-26">
          <mxGeometry x="12" y="13" width="165" height="228" as="geometry" />
        </mxCell>
        <mxCell id="NsBZBf5qjh5uvH7BnObX-17" value="Model SOC stocks using&lt;br&gt;&lt;b&gt;Random Forest&lt;br&gt;&lt;/b&gt;algorithm" style="rounded=1;whiteSpace=wrap;html=1;absoluteArcSize=1;arcSize=14;strokeWidth=2;fontFamily=Times New Roman;shadow=1;fillColor=#ffcd28;gradientColor=#ffa500;strokeColor=#d79b00;fontStyle=0" vertex="1" parent="NsBZBf5qjh5uvH7BnObX-84">
          <mxGeometry y="168" width="137.25" height="60" as="geometry" />
        </mxCell>
        <mxCell id="NsBZBf5qjh5uvH7BnObX-68" value="Sort, 100 times, the samples for cross-validation resampled folds" style="rounded=1;whiteSpace=wrap;html=1;absoluteArcSize=1;arcSize=14;strokeWidth=2;fontFamily=Times New Roman;shadow=1;fillColor=#ffcd28;gradientColor=#ffa500;strokeColor=#d79b00;fontStyle=0" vertex="1" parent="NsBZBf5qjh5uvH7BnObX-84">
          <mxGeometry width="137.25" height="70" as="geometry" />
        </mxCell>
        <mxCell id="NsBZBf5qjh5uvH7BnObX-69" value="&lt;span style=&quot;-webkit-font-smoothing: antialiased; orphans: 2; text-align: right; text-indent: 0px; widows: 2; background-color: rgb(248, 249, 250); text-decoration-thickness: initial; text-decoration-style: initial; text-decoration-color: initial;&quot;&gt;&lt;div style=&quot;text-align: left;&quot;&gt;Randomly sort&amp;nbsp;&lt;/div&gt;&lt;div style=&quot;text-align: left;&quot;&gt;which&amp;nbsp;&lt;b&gt;samples&lt;/b&gt;&lt;/div&gt;&lt;div style=&quot;text-align: left;&quot;&gt;will be located&lt;/div&gt;&lt;div style=&quot;text-align: left;&quot;&gt;into calibration&amp;nbsp;&lt;/div&gt;&lt;div style=&quot;text-align: left;&quot;&gt;and in the validation&lt;/div&gt;&lt;div style=&quot;text-align: left;&quot;&gt;resampled&amp;nbsp;&lt;/div&gt;&lt;div style=&quot;text-align: left;&quot;&gt;dataset (repeated&lt;/div&gt;&lt;div style=&quot;text-align: left;&quot;&gt;100 times)&lt;/div&gt;&lt;/span&gt;" style="strokeWidth=2;html=1;shape=mxgraph.flowchart.annotation_1;align=left;pointerEvents=1;fontFamily=Times New Roman;fontColor=#000000;flipH=0;labelPosition=right;verticalLabelPosition=middle;verticalAlign=middle;spacing=0;spacingLeft=-10;spacingBottom=10;spacingTop=14;" vertex="1" parent="NsBZBf5qjh5uvH7BnObX-84">
          <mxGeometry x="145" width="20" height="140" as="geometry" />
        </mxCell>
        <mxCell id="NsBZBf5qjh5uvH7BnObX-14" value="Partition the randomly sorted samples into&lt;br&gt;10-Folds" style="rounded=1;whiteSpace=wrap;html=1;absoluteArcSize=1;arcSize=14;strokeWidth=2;fontFamily=Times New Roman;shadow=1;fillColor=#ffcd28;gradientColor=#ffa500;strokeColor=#d79b00;fontStyle=0" vertex="1" parent="NsBZBf5qjh5uvH7BnObX-84">
          <mxGeometry y="90" width="137.25" height="50" as="geometry" />
        </mxCell>
        <mxCell id="NsBZBf5qjh5uvH7BnObX-18" style="edgeStyle=orthogonalEdgeStyle;rounded=0;orthogonalLoop=1;jettySize=auto;html=1;exitX=0.5;exitY=1;exitDx=0;exitDy=0;entryX=0.5;entryY=0;entryDx=0;entryDy=0;fontFamily=Times New Roman;strokeWidth=2;" edge="1" parent="NsBZBf5qjh5uvH7BnObX-84" source="NsBZBf5qjh5uvH7BnObX-14" target="NsBZBf5qjh5uvH7BnObX-17">
          <mxGeometry relative="1" as="geometry" />
        </mxCell>
        <mxCell id="NsBZBf5qjh5uvH7BnObX-72" style="edgeStyle=orthogonalEdgeStyle;rounded=0;orthogonalLoop=1;jettySize=auto;html=1;exitX=0.5;exitY=1;exitDx=0;exitDy=0;entryX=0.5;entryY=0;entryDx=0;entryDy=0;fontFamily=Times New Roman;strokeWidth=2;" edge="1" parent="NsBZBf5qjh5uvH7BnObX-84" source="NsBZBf5qjh5uvH7BnObX-68" target="NsBZBf5qjh5uvH7BnObX-14">
          <mxGeometry relative="1" as="geometry" />
        </mxCell>
        <mxCell id="NsBZBf5qjh5uvH7BnObX-73" value="&lt;span style=&quot;font-weight: 700;&quot;&gt;Step&amp;nbsp;3b) Model&#39;s tuning via the&lt;br&gt;spatial k-Fold cross-validation (spatial k-Fold):&lt;/span&gt;&lt;span style=&quot;&quot;&gt;&lt;br&gt;&lt;/span&gt;" style="swimlane;startSize=0;labelBackgroundColor=none;labelBorderColor=none;fontFamily=Times New Roman;html=1;verticalAlign=bottom;fillColor=#FFFFFF;labelPosition=center;verticalLabelPosition=top;align=left;fontStyle=0;spacingTop=0;spacingLeft=0;spacingRight=5;" vertex="1" parent="IPpactHnkEMHCw_4FyVV-1">
          <mxGeometry x="464" y="490" width="280" height="255" as="geometry" />
        </mxCell>
        <mxCell id="NsBZBf5qjh5uvH7BnObX-75" value="Partition the randomly sorted clusters into&lt;br&gt;10-Folds" style="rounded=1;whiteSpace=wrap;html=1;absoluteArcSize=1;arcSize=14;strokeWidth=2;fontFamily=Times New Roman;shadow=1;fillColor=#ffcd28;gradientColor=#ffa500;strokeColor=#d79b00;fontStyle=0" vertex="1" parent="NsBZBf5qjh5uvH7BnObX-73">
          <mxGeometry x="10" y="104" width="137.25" height="47" as="geometry" />
        </mxCell>
        <mxCell id="NsBZBf5qjh5uvH7BnObX-76" value="Model SOC stocks using&lt;br&gt;&lt;b&gt;Random Forest&lt;br&gt;&lt;/b&gt;algorithm" style="rounded=1;whiteSpace=wrap;html=1;absoluteArcSize=1;arcSize=14;strokeWidth=2;fontFamily=Times New Roman;shadow=1;fillColor=#ffcd28;gradientColor=#ffa500;strokeColor=#d79b00;fontStyle=0" vertex="1" parent="NsBZBf5qjh5uvH7BnObX-73">
          <mxGeometry x="10" y="181" width="137.25" height="60" as="geometry" />
        </mxCell>
        <mxCell id="NsBZBf5qjh5uvH7BnObX-78" value="Sort, 100 times, the clustered samples for cross-validation resampled folds" style="rounded=1;whiteSpace=wrap;html=1;absoluteArcSize=1;arcSize=14;strokeWidth=2;fontFamily=Times New Roman;shadow=1;fillColor=#ffcd28;gradientColor=#ffa500;strokeColor=#d79b00;fontStyle=0" vertex="1" parent="NsBZBf5qjh5uvH7BnObX-73">
          <mxGeometry x="10" y="13" width="137.25" height="70" as="geometry" />
        </mxCell>
        <mxCell id="NsBZBf5qjh5uvH7BnObX-79" value="&lt;span style=&quot;-webkit-font-smoothing: antialiased; orphans: 2; text-indent: 0px; widows: 2; text-decoration-thickness: initial; text-decoration-style: initial; text-decoration-color: initial;&quot;&gt;&lt;div style=&quot;&quot;&gt;Randomly sort which&lt;/div&gt;&lt;div style=&quot;&quot;&gt;&lt;b&gt;clustered samples&amp;nbsp;&lt;/b&gt;will&amp;nbsp;&lt;/div&gt;&lt;div style=&quot;&quot;&gt;be located into the&lt;/div&gt;&lt;div style=&quot;&quot;&gt;calibration and in the&lt;/div&gt;&lt;div style=&quot;&quot;&gt;validation resampled&lt;/div&gt;&lt;div style=&quot;&quot;&gt;dataset (repeated 100&amp;nbsp;&lt;/div&gt;&lt;div style=&quot;&quot;&gt;times)&lt;/div&gt;&lt;/span&gt;" style="strokeWidth=2;html=1;shape=mxgraph.flowchart.annotation_1;align=left;pointerEvents=1;fontFamily=Times New Roman;fontColor=#000000;flipH=0;labelPosition=right;verticalLabelPosition=middle;verticalAlign=middle;spacing=0;spacingLeft=-10;spacingBottom=10;spacingTop=0;horizontal=1;textDirection=ltr;labelBackgroundColor=none;" vertex="1" parent="NsBZBf5qjh5uvH7BnObX-73">
          <mxGeometry x="155" y="13" width="20" height="137" as="geometry" />
        </mxCell>
        <mxCell id="NsBZBf5qjh5uvH7BnObX-74" style="edgeStyle=orthogonalEdgeStyle;rounded=0;orthogonalLoop=1;jettySize=auto;html=1;exitX=0.5;exitY=1;exitDx=0;exitDy=0;entryX=0.5;entryY=0;entryDx=0;entryDy=0;fontFamily=Times New Roman;strokeWidth=2;" edge="1" parent="NsBZBf5qjh5uvH7BnObX-73" source="NsBZBf5qjh5uvH7BnObX-75" target="NsBZBf5qjh5uvH7BnObX-76">
          <mxGeometry relative="1" as="geometry" />
        </mxCell>
        <mxCell id="NsBZBf5qjh5uvH7BnObX-77" style="edgeStyle=orthogonalEdgeStyle;rounded=0;orthogonalLoop=1;jettySize=auto;html=1;exitX=0.5;exitY=1;exitDx=0;exitDy=0;entryX=0.5;entryY=0;entryDx=0;entryDy=0;fontFamily=Times New Roman;strokeWidth=2;" edge="1" parent="NsBZBf5qjh5uvH7BnObX-73" source="NsBZBf5qjh5uvH7BnObX-78" target="NsBZBf5qjh5uvH7BnObX-75">
          <mxGeometry relative="1" as="geometry" />
        </mxCell>
        <mxCell id="NsBZBf5qjh5uvH7BnObX-116" value="" style="verticalLabelPosition=bottom;verticalAlign=top;html=1;strokeWidth=2;shape=mxgraph.arrows2.arrow;dy=0.6;dx=46.13;notch=0;shadow=1;fontFamily=Times New Roman;fillColor=#e1d5e7;rotation=90;strokeColor=#9673a6;" vertex="1" parent="IPpactHnkEMHCw_4FyVV-1">
          <mxGeometry x="415.88" y="700" width="59.25" height="120" as="geometry" />
        </mxCell>
        <mxCell id="n6R6cwVyYF6rRCu_3RDR-2" value="e.g.: with the first seed, clusters 1 to 9 are set to calibrate the model while clusters 10 to 12 are for model validation. With a new seed, clusters 10 to 19 are destined to model calibration, and clusters 1, 8, and 20 are for the models&#39; cross-validation." style="rounded=1;whiteSpace=wrap;html=1;labelBackgroundColor=none;fontFamily=Times New Roman;align=center;shadow=1;dashed=1;" vertex="1" parent="IPpactHnkEMHCw_4FyVV-1">
          <mxGeometry x="628" y="648" width="160" height="130" as="geometry" />
        </mxCell>
        <mxCell id="n6R6cwVyYF6rRCu_3RDR-3" value="Identical hyperparameters as the model tuning in Google Earth Engine platform" style="rounded=1;whiteSpace=wrap;html=1;labelBackgroundColor=none;fontFamily=Times New Roman;align=center;fontSize=10;dashed=1;shadow=1;" vertex="1" parent="IPpactHnkEMHCw_4FyVV-1">
          <mxGeometry x="342" y="653" width="100" height="65" as="geometry" />
        </mxCell>
        <mxCell id="n6R6cwVyYF6rRCu_3RDR-4" style="rounded=0;orthogonalLoop=1;jettySize=auto;html=1;exitX=0;exitY=0.5;exitDx=0;exitDy=0;entryX=1;entryY=0.5;entryDx=0;entryDy=0;fontFamily=Times New Roman;fontSize=10;dashed=1;shadow=1;" edge="1" parent="IPpactHnkEMHCw_4FyVV-1" source="NsBZBf5qjh5uvH7BnObX-76" target="n6R6cwVyYF6rRCu_3RDR-3">
          <mxGeometry relative="1" as="geometry" />
        </mxCell>
        <mxCell id="n6R6cwVyYF6rRCu_3RDR-5" style="edgeStyle=none;rounded=0;orthogonalLoop=1;jettySize=auto;html=1;exitX=1;exitY=0.5;exitDx=0;exitDy=0;entryX=0;entryY=0.5;entryDx=0;entryDy=0;fontFamily=Times New Roman;fontSize=10;dashed=1;shadow=1;" edge="1" parent="IPpactHnkEMHCw_4FyVV-1" source="NsBZBf5qjh5uvH7BnObX-17" target="n6R6cwVyYF6rRCu_3RDR-3">
          <mxGeometry relative="1" as="geometry" />
        </mxCell>
        <mxCell id="NsBZBf5qjh5uvH7BnObX-43" value="YES" style="edgeStyle=orthogonalEdgeStyle;rounded=0;orthogonalLoop=1;jettySize=auto;html=1;exitX=0;exitY=0.5;exitDx=0;exitDy=0;exitPerimeter=0;fontFamily=Times New Roman;strokeWidth=2;curved=1;" edge="1" parent="IPpactHnkEMHCw_4FyVV-1" source="NsBZBf5qjh5uvH7BnObX-42">
          <mxGeometry relative="1" as="geometry">
            <mxPoint x="230" y="450" as="targetPoint" />
          </mxGeometry>
        </mxCell>
        <mxCell id="_SlX5vnS1dVJzT5Eup1S-0" style="edgeStyle=orthogonalEdgeStyle;rounded=0;orthogonalLoop=1;jettySize=auto;html=1;exitX=0.5;exitY=1;exitDx=0;exitDy=0;strokeWidth=2;" edge="1" parent="IPpactHnkEMHCw_4FyVV-1" source="NsBZBf5qjh5uvH7BnObX-51">
          <mxGeometry relative="1" as="geometry">
            <mxPoint x="574" y="450" as="targetPoint" />
          </mxGeometry>
        </mxCell>
        <mxCell id="tEJoXL1Dc89ZSNuKgnxy-0" style="edgeStyle=orthogonalEdgeStyle;rounded=0;orthogonalLoop=1;jettySize=auto;html=1;exitX=0.5;exitY=1;exitDx=0;exitDy=0;exitPerimeter=0;curved=1;strokeWidth=2;" edge="1" parent="IPpactHnkEMHCw_4FyVV-1" source="IPpactHnkEMHCw_4FyVV-7" target="NsBZBf5qjh5uvH7BnObX-42">
          <mxGeometry relative="1" as="geometry">
            <Array as="points">
              <mxPoint x="629" y="140" />
              <mxPoint x="357" y="140" />
            </Array>
          </mxGeometry>
        </mxCell>
        <mxCell id="NsBZBf5qjh5uvH7BnObX-101" value="Step 2) Data separation (for stable and unstable) and clustering samples:" style="swimlane;startSize=0;labelBackgroundColor=default;labelBorderColor=none;fontFamily=Times New Roman;html=1;verticalAlign=bottom;fillColor=#FFFFFF;align=left;spacingBottom=2;" vertex="1" parent="IPpactHnkEMHCw_4FyVV-1">
          <mxGeometry x="147" y="170" width="597" height="250" as="geometry" />
        </mxCell>
        <mxCell id="NsBZBf5qjh5uvH7BnObX-42" value="Modeling&lt;br&gt;via standard&lt;br&gt;k-Fold?" style="strokeWidth=2;html=1;shape=mxgraph.flowchart.decision;whiteSpace=wrap;fontFamily=Times New Roman;fillColor=#f8cecc;strokeColor=#b85450;fontStyle=0;shadow=1;" vertex="1" parent="NsBZBf5qjh5uvH7BnObX-101">
          <mxGeometry x="133" y="15.001904761904768" width="155" height="65" as="geometry" />
        </mxCell>
        <mxCell id="NsBZBf5qjh5uvH7BnObX-45" value="NOT" style="edgeStyle=orthogonalEdgeStyle;rounded=0;orthogonalLoop=1;jettySize=auto;html=1;exitX=1;exitY=0.5;exitDx=0;exitDy=0;exitPerimeter=0;entryX=0;entryY=0.5;entryDx=0;entryDy=0;fontFamily=Times New Roman;strokeWidth=2;curved=1;" edge="1" parent="NsBZBf5qjh5uvH7BnObX-101" source="NsBZBf5qjh5uvH7BnObX-42" target="NsBZBf5qjh5uvH7BnObX-41">
          <mxGeometry relative="1" as="geometry" />
        </mxCell>
        <mxCell id="NsBZBf5qjh5uvH7BnObX-39" style="edgeStyle=orthogonalEdgeStyle;rounded=0;orthogonalLoop=1;jettySize=auto;html=1;exitX=0.5;exitY=1;exitDx=0;exitDy=0;entryX=0.5;entryY=0;entryDx=0;entryDy=0;entryPerimeter=0;fontFamily=Times New Roman;fontColor=#000000;strokeWidth=2;" edge="1" parent="NsBZBf5qjh5uvH7BnObX-101">
          <mxGeometry relative="1" as="geometry">
            <Array as="points">
              <mxPoint x="134" y="130" />
              <mxPoint x="201" y="130" />
            </Array>
            <mxPoint x="201" y="150.00619047619057" as="targetPoint" />
          </mxGeometry>
        </mxCell>
        <mxCell id="NsBZBf5qjh5uvH7BnObX-40" style="edgeStyle=orthogonalEdgeStyle;rounded=0;orthogonalLoop=1;jettySize=auto;html=1;exitX=0.5;exitY=1;exitDx=0;exitDy=0;entryX=0.5;entryY=0;entryDx=0;entryDy=0;entryPerimeter=0;fontFamily=Times New Roman;fontColor=#000000;strokeWidth=2;" edge="1" parent="NsBZBf5qjh5uvH7BnObX-101">
          <mxGeometry relative="1" as="geometry">
            <Array as="points">
              <mxPoint x="134" y="130" />
              <mxPoint x="72" y="130" />
            </Array>
            <mxPoint x="71.5" y="150.00619047619057" as="targetPoint" />
          </mxGeometry>
        </mxCell>
        <mxCell id="NsBZBf5qjh5uvH7BnObX-121" value="" style="group" vertex="1" connectable="0" parent="NsBZBf5qjh5uvH7BnObX-101">
          <mxGeometry x="347" y="15.001904761904754" width="239" height="210" as="geometry" />
        </mxCell>
        <mxCell id="NsBZBf5qjh5uvH7BnObX-41" value="Grouping samples by its distance: nearest samples are clustered, creating&amp;nbsp;&lt;i&gt;k&lt;/i&gt;&amp;nbsp;groups of samples" style="rounded=1;whiteSpace=wrap;html=1;absoluteArcSize=1;arcSize=14;strokeWidth=2;fontFamily=Times New Roman;shadow=1;fillColor=#ffcd28;gradientColor=#ffa500;strokeColor=#d79b00;fontStyle=0" vertex="1" parent="NsBZBf5qjh5uvH7BnObX-121">
          <mxGeometry x="1.1299999999999955" width="157.75" height="65" as="geometry" />
        </mxCell>
        <mxCell id="NsBZBf5qjh5uvH7BnObX-49" value="Compute the distance matrix (in meters)" style="rounded=1;whiteSpace=wrap;html=1;absoluteArcSize=1;arcSize=14;strokeWidth=2;fontFamily=Times New Roman;shadow=1;fillColor=#ffcd28;gradientColor=#ffa500;strokeColor=#d79b00;fontStyle=0" vertex="1" parent="NsBZBf5qjh5uvH7BnObX-121">
          <mxGeometry y="90" width="160" height="40" as="geometry" />
        </mxCell>
        <mxCell id="NsBZBf5qjh5uvH7BnObX-51" value="Group samples by its distance&lt;br&gt;to other samples via &lt;b&gt;k-Means &lt;/b&gt;algorithm" style="rounded=1;whiteSpace=wrap;html=1;absoluteArcSize=1;arcSize=14;strokeWidth=2;fontFamily=Times New Roman;shadow=1;fillColor=#ffcd28;gradientColor=#ffa500;strokeColor=#d79b00;fontStyle=0" vertex="1" parent="NsBZBf5qjh5uvH7BnObX-121">
          <mxGeometry y="160" width="160" height="50" as="geometry" />
        </mxCell>
        <mxCell id="NsBZBf5qjh5uvH7BnObX-48" value="Set &lt;i&gt;k&lt;/i&gt;&lt;br&gt;groups" style="html=1;strokeWidth=2;shape=manualInput;whiteSpace=wrap;rounded=1;size=26;arcSize=11;shadow=1;fontFamily=Times New Roman;fillColor=#dae8fc;spacingTop=8;strokeColor=#6c8ebf;" vertex="1" parent="NsBZBf5qjh5uvH7BnObX-121">
          <mxGeometry x="172" y="75" width="67" height="55" as="geometry" />
        </mxCell>
        <mxCell id="NsBZBf5qjh5uvH7BnObX-52" style="edgeStyle=orthogonalEdgeStyle;rounded=0;orthogonalLoop=1;jettySize=auto;html=1;exitX=0.5;exitY=1;exitDx=0;exitDy=0;entryX=0.5;entryY=0;entryDx=0;entryDy=0;fontFamily=Times New Roman;strokeWidth=2;" edge="1" parent="NsBZBf5qjh5uvH7BnObX-121" source="NsBZBf5qjh5uvH7BnObX-41" target="NsBZBf5qjh5uvH7BnObX-49">
          <mxGeometry relative="1" as="geometry" />
        </mxCell>
        <mxCell id="NsBZBf5qjh5uvH7BnObX-53" style="edgeStyle=orthogonalEdgeStyle;rounded=0;orthogonalLoop=1;jettySize=auto;html=1;exitX=0.5;exitY=1;exitDx=0;exitDy=0;fontFamily=Times New Roman;strokeWidth=2;" edge="1" parent="NsBZBf5qjh5uvH7BnObX-121" source="NsBZBf5qjh5uvH7BnObX-49" target="NsBZBf5qjh5uvH7BnObX-51">
          <mxGeometry relative="1" as="geometry" />
        </mxCell>
        <mxCell id="NsBZBf5qjh5uvH7BnObX-54" style="edgeStyle=orthogonalEdgeStyle;rounded=0;orthogonalLoop=1;jettySize=auto;html=1;exitX=1;exitY=0.5;exitDx=0;exitDy=0;entryX=0.5;entryY=0;entryDx=0;entryDy=0;fontFamily=Times New Roman;strokeWidth=2;curved=1;" edge="1" parent="NsBZBf5qjh5uvH7BnObX-121" source="NsBZBf5qjh5uvH7BnObX-41" target="NsBZBf5qjh5uvH7BnObX-48">
          <mxGeometry relative="1" as="geometry" />
        </mxCell>
        <mxCell id="NsBZBf5qjh5uvH7BnObX-55" style="edgeStyle=orthogonalEdgeStyle;rounded=0;orthogonalLoop=1;jettySize=auto;html=1;exitX=0.5;exitY=1;exitDx=0;exitDy=0;entryX=1;entryY=0.5;entryDx=0;entryDy=0;fontFamily=Times New Roman;strokeWidth=2;curved=1;" edge="1" parent="NsBZBf5qjh5uvH7BnObX-121" source="NsBZBf5qjh5uvH7BnObX-48" target="NsBZBf5qjh5uvH7BnObX-51">
          <mxGeometry relative="1" as="geometry" />
        </mxCell>
        <mxCell id="NsBZBf5qjh5uvH7BnObX-61" style="edgeStyle=orthogonalEdgeStyle;rounded=0;orthogonalLoop=1;jettySize=auto;html=1;exitX=0.5;exitY=1;exitDx=0;exitDy=0;entryX=0.5;entryY=0;entryDx=0;entryDy=0;entryPerimeter=0;fontFamily=Times New Roman;fontColor=#000000;strokeWidth=2;" edge="1" parent="NsBZBf5qjh5uvH7BnObX-101">
          <mxGeometry relative="1" as="geometry">
            <Array as="points">
              <mxPoint x="308" y="340" />
              <mxPoint x="373" y="340" />
            </Array>
            <mxPoint x="373" y="358.0019047619048" as="targetPoint" />
          </mxGeometry>
        </mxCell>
        <mxCell id="NsBZBf5qjh5uvH7BnObX-62" style="edgeStyle=orthogonalEdgeStyle;rounded=0;orthogonalLoop=1;jettySize=auto;html=1;exitX=0.5;exitY=1;exitDx=0;exitDy=0;entryX=0.5;entryY=0;entryDx=0;entryDy=0;entryPerimeter=0;fontFamily=Times New Roman;fontColor=#000000;strokeWidth=2;" edge="1" parent="NsBZBf5qjh5uvH7BnObX-101">
          <mxGeometry relative="1" as="geometry">
            <Array as="points">
              <mxPoint x="308" y="340" />
              <mxPoint x="244" y="340" />
            </Array>
            <mxPoint x="243.5" y="358.0019047619048" as="targetPoint" />
          </mxGeometry>
        </mxCell>
        <mxCell id="NsBZBf5qjh5uvH7BnObX-63" value="&lt;span style=&quot;-webkit-font-smoothing: antialiased; orphans: 2; text-indent: 0px; widows: 2; background-color: rgb(248, 249, 250); text-decoration-thickness: initial; text-decoration-style: initial; text-decoration-color: initial;&quot;&gt;&lt;div style=&quot;&quot;&gt;Each sample contains an&lt;/div&gt;&lt;div style=&quot;&quot;&gt;identification&amp;nbsp; indicating to&lt;/div&gt;&lt;div style=&quot;&quot;&gt;which group it belongs&lt;/div&gt;&lt;/span&gt;" style="strokeWidth=2;html=1;shape=mxgraph.flowchart.annotation_1;align=right;pointerEvents=1;fontFamily=Times New Roman;fontColor=#000000;flipH=1;labelPosition=left;verticalLabelPosition=middle;verticalAlign=middle;spacing=0;spacingLeft=0;spacingBottom=10;spacingTop=4;spacingRight=-10;" vertex="1" parent="NsBZBf5qjh5uvH7BnObX-101">
          <mxGeometry x="313" y="175" width="20" height="50" as="geometry" />
        </mxCell>
        <mxCell id="n6R6cwVyYF6rRCu_3RDR-7" value="" style="verticalLabelPosition=bottom;verticalAlign=top;html=1;strokeWidth=2;shape=mxgraph.arrows2.arrow;dy=0.6;dx=46.13;notch=0;shadow=1;fontFamily=Times New Roman;fillColor=#e1d5e7;rotation=90;strokeColor=#9673a6;" vertex="1" parent="IPpactHnkEMHCw_4FyVV-1">
          <mxGeometry x="382.75" y="381" width="59.25" height="120" as="geometry" />
        </mxCell>
        <mxCell id="NsBZBf5qjh5uvH7BnObX-15" value="Setting 100&lt;br&gt;different true random seeds (randomization seeds)" style="html=1;strokeWidth=2;shape=manualInput;whiteSpace=wrap;rounded=1;size=26;arcSize=11;shadow=1;fontFamily=Times New Roman;fillColor=#dae8fc;strokeColor=#6c8ebf;spacingTop=16;" vertex="1" parent="IPpactHnkEMHCw_4FyVV-1">
          <mxGeometry x="90" y="360" width="103" height="90" as="geometry" />
        </mxCell>
      </root>
    </mxGraphModel>
  </diagram>
</mxfile>
